<svg id="Layer_1" data-name="Layer 1" xmlns="http://www.w3.org/2000/svg" viewBox="0 0 525.88 210.95"><defs><style>.cls-1{fill:#282f39;}.cls-2{fill:#fff;}</style></defs><title>logo</title><path class="cls-1" d="M195,306.91l-11.88,6.85s-7.85,35.44,7,51.15c4.63.2,8.26,0,8.26,0s1-62.43,55-59.21,53,68.47,53,68.47l255.76,5s-4.43-73.56,58.4-73.56c42.69,0,54,47.85,50.55,72.42,0,0,25,.81,33.23-2.42,0,0,.81-5.64-3-12.69l5.64-24.77-1.41-15.51-8.26-5.84-2.82-18.93s-4.63-12.08-25.78-20.34l-.5-1.71s-26.28-11.58-84.08-14.2a2.33,2.33,0,0,0-2.42-1.95H564.12l-59.21-52.9s-8.06-6.78-18.53-8.59-124.86-8.46-223.14,0c0,0-7.85.4-16.31,8.46l.81,1.61S229.94,228,217.32,252.67a4.55,4.55,0,0,0-3.93,2.08s-11.51,1.81-15.81,20.61C197.59,275.36,195.17,295.49,195,306.91Z" transform="translate(-181.02 -193.96)"/><path class="cls-2" d="M486.25,208.49l17.32-1.34L563.85,261s-4.43,3-13.69,3.76-11.28,0-11.28,0Z" transform="translate(-181.02 -193.96)"/><polygon class="cls-2" points="292.34 15.34 339.6 70.25 189.36 64.41 188.35 15.34 292.34 15.34"/><polygon class="cls-2" points="183.99 15.34 184.93 64.08 61.48 59.38 86.65 15.34 183.99 15.34"/><path class="cls-2" d="M685.75,311.34s-3.09,1.75-12.35-4.3-18.66-21.88-14-26S690.72,299.52,685.75,311.34Z" transform="translate(-181.02 -193.96)"/><path class="cls-2" d="M702.13,337s-7-.13-7.38,5-3.22,19.47,3.69,19.74c0,0,2.62-1.34,3.69-10.61S702.13,337,702.13,337Z" transform="translate(-181.02 -193.96)"/><path class="cls-2" d="M373.06,282.4s-10.87-.07-10.87-2.75,12.08-2.42,12.08-2.42,1.41-4.16,7.92-4.16c5.71,0,5.77,4.83,5.77,4.83s7.52.81,7.65,3-7.12,1.88-7.12,1.88-.74,5.44-8.46,5.1C372.67,287.52,373.06,282.4,373.06,282.4Z" transform="translate(-181.02 -193.96)"/><path class="cls-2" d="M248.24,208.43h4.13s-20.14,25.17-29.81,44.51h-3.89S230.55,229.3,248.24,208.43Z" transform="translate(-181.02 -193.96)"/><path class="cls-2" d="M199,300.16s-3,0-2.42-4.73,3.22-31.92,14.1-31.92c4.93,0,1.61,8.86,1.61,8.86l-8.36,25A4.47,4.47,0,0,1,199,300.16Z" transform="translate(-181.02 -193.96)"/><path class="cls-1" d="M513.57,271.16l-7-10.17s1.31-3,.5-4.93a16.45,16.45,0,0,0-19.43-8.46,11.65,11.65,0,0,0,0,21.15l6.24-.3-1.91,2.22s1,7.45,11.28,7S513.57,271.16,513.57,271.16Z" transform="translate(-181.02 -193.96)"/><circle class="cls-1" cx="70.67" cy="165.04" r="45.92"/><circle class="cls-2" cx="70.67" cy="165.04" r="34.64"/><circle class="cls-1" cx="435.97" cy="165.04" r="45.92"/><circle class="cls-2" cx="435.97" cy="165.04" r="34.64"/></svg>